<svg width="75" height="75" viewBox="0 0 75 75" fill="none" xmlns="http://www.w3.org/2000/svg">
<path fill-rule="evenodd" clip-rule="evenodd" d="M33.3142 40.2714L11.9419 33.1473C9.58872 32.3629 8.41211 31.9707 8.41211 31.25C8.41211 30.5292 9.58872 30.137 11.9419 29.3526L58.7051 13.7649C60.3609 13.213 61.1888 12.937 61.6258 13.374C62.0628 13.811 61.7868 14.6389 61.2349 16.2947L45.6472 63.0579C44.8628 65.4111 44.4706 66.5877 43.7498 66.5877C43.0291 66.5877 42.6369 65.4111 41.8525 63.0579L34.7284 41.6856L47.5819 28.8321C47.9725 28.4416 47.9725 27.8084 47.5819 27.4179C47.1914 27.0273 46.5583 27.0273 46.1677 27.4179L33.3142 40.2714Z" fill="#035755"/>
</svg>
